max v2;#N vpatcher 469 91 1196 634;#P window setfont "Sans Serif" 9.;#P comment 359 235 285 196617 outlets: incoming message \, sender address \, bundle time \, info;#P newex 467 403 34 196617 / 64.;#P message 467 429 101 196617 /n_set 1000 pan \$1;#P user hslider 467 377 18 128 129 1 -64 0;#P message 468 339 104 196617 /n_set 1000 amp \$1;#P newex 468 314 34 196617 dbtoa;#P user hslider 468 287 18 128 128 1 -100 0;#P user ezdac~ 320 459 364 492 0;#P newex 13 191 68 196617 route /c_set;#P toggle 80 340 15 0;#P newex 183 402 41 196617 sig~ 0.;#P user levelmeter~ 184 429 128 64 20 0 1000 0 -48 12 0 0 0 0 0;#X brgb 240 240 240;#X frgb 200 200 200;#X rgb2 0 0 0;#X rgb3 0 0 0;#X rgb4 0 0 0;#X rgb5 255 0 0;#X rgb6 220 100 100;#X rgb7 220 150 80;#X rgb8 220 200 100;#X rgb9 180 210 100;#X markers 12 6 0 -6 -12 -24 -36 -48 0;#X markersused 8;#X done;#P newex 51 402 41 196617 sig~ 0.;#N vpatcher 155 401 705 754;#P window setfont "Sans Serif" 9.;#P window linecount 1;#P newex 40 116 53 196617 t b b b b;#P message 51 182 114 196617 /n_set 9999 t_reset 1;#P message 51 162 89 196617 /c_get 999 1000;#P message 38 204 61 196617 closebundle;#P message 38 143 58 196617 openbundle;#P newex 420 75 82 196617 unpack 0 0. 0 0.;#P inlet 420 46 15 0;#P message 178 118 73 196617 /n_free 9999;#P newex 92 61 52 196617 route 0 1;#P window linecount 0;#P newex 56 90 52 196617 metro 33;#P message 178 92 184 196617 /s_new meter2 9999 1 0 in 0 out 999;#P newex 56 61 27 196617 t i i;#P inlet 56 40 15 0;#P outlet 133 287 15 0;#P outlet 105 287 15 0;#P outlet 76 287 15 0;#P outlet 48 287 15 0;#P connect 16 3 12 0;#P connect 16 0 13 0;#P connect 7 0 16 0;#P connect 11 1 0 0;#P connect 16 2 14 0;#P connect 16 1 15 0;#P connect 4 0 5 0;#P connect 5 0 7 0;#P connect 11 3 1 0;#P connect 5 1 8 0;#P connect 13 0 2 0;#P connect 12 0 2 0;#P connect 6 0 3 0;#P connect 9 0 3 0;#P connect 15 0 3 0;#P connect 14 0 3 0;#P connect 8 1 6 0;#P connect 8 0 9 0;#P connect 10 0 11 0;#P pop;#P newobj 80 372 73 196617 p outputMeter;#P user levelmeter~ 51 430 128 64 20 0 1000 0 -48 12 0 0 0 0 0;#X brgb 240 240 240;#X frgb 200 200 200;#X rgb2 0 0 0;#X rgb3 0 0 0;#X rgb4 0 0 0;#X rgb5 255 0 0;#X rgb6 220 100 100;#X rgb7 220 150 80;#X rgb8 220 200 100;#X rgb9 180 210 100;#X markers 12 6 0 -6 -12 -24 -36 -48 0;#X markersused 8;#X done;#P comment 126 260 136 196617 Some SuperCollider testing:;#P message 216 328 58 196617 /notify \$1;#P toggle 216 304 15 0;#P message 307 359 104 196617 /n_set 1000 gate -6;#P message 307 337 105 196617 /n_set 1000 freq \$1;#P newex 308 311 31 196617 mtof;#P user hslider 307 289 18 128 128 1 0 0;#P message 308 266 176 196617 /s_new default 1000 0 0 freq 333.3;#P comment 326 210 227 196617 default protocol is udp. other possible value: tcp;#P comment 325 194 250 196617 default own port is 0 (will be automatically assigned);#P newex 222 195 55 196617 print INFO;#P comment 265 174 215 196617 optional args: <String> protocol <int> myPort;#P comment 265 159 134 196617 optional args: <int> myPort;#P message 219 92 66 196617 dumpOSC \$1;#P toggle 219 68 15 0;#P newex 90 192 89 196617 print REPLY_MSG;#P message 113 133 64 196617 getlocalport;#P message 103 114 52 196617 gettarget;#P message 41 90 57 196617 disconnect;#P message 41 69 143 196617 target 192.168.0.100 57100;#P message 41 48 119 196617 target 127.0.0.1 57110;#P newex 97 159 143 196617 mxj de.sciss.net.PDOSCClient;#P connect 0 0 28 0;#P connect 23 0 24 0;#P connect 24 0 22 0;#P connect 27 0 23 0;#P connect 28 1 6 0;#P connect 2 0 0 0;#P connect 1 0 0 0;#P connect 3 0 0 0;#P connect 4 0 0 0;#P connect 5 0 0 0;#P connect 8 0 0 0;#P connect 23 2 0 0;#P connect 28 0 23 1;#P connect 23 1 26 0;#P connect 26 0 25 0;#P connect 19 0 20 0;#P connect 7 0 8 0;#P connect 0 3 11 0;#P connect 14 0 0 1;#P connect 17 0 0 1;#P connect 18 0 0 1;#P connect 20 0 0 1;#P connect 23 3 0 1;#P connect 32 0 0 1;#P connect 34 0 0 1;#P connect 16 0 17 0;#P connect 15 0 16 0;#P connect 33 0 35 0;#P connect 35 0 34 0;#P connect 30 0 31 0;#P connect 31 0 32 0;#P pop;